# xmcd
#
# Track frame offsets: 
#        150
#        3937
#        15480
#        27061
#        38656
#        57294
#        68957
#        80516
#        99266
#        110816
#        122270
#        133840
#        145517
#        157095
#        170012
#        183448
#        195117
#        206699
#        218359
#        230894
#        237007
#        248681
#        260183
#        277192
#        289742
#        304869
#        311973
#
# Disc length: 4313 seconds
#
# Revision: 0
# Processed by: cddbd v1.5.2PL0 Copyright (c) Steve Scherf et al.
# Submitted via: ExactAudioCopy v0.95b4
#
DISCID=7d10d71b
DTITLE=Steve Kaufman - Four Hour Bluegrass Workout Vol2 [CD2-Slow)
DYEAR=2008
DGENRE=Bluegrass
TTITLE0=Tuning Up the Guitar
TTITLE1=molly bloom
TTITLE2=monroe's hornpipe
TTITLE3=new five cents
TTITLE4=nothing to it
TTITLE5=paddy on the turnpike
TTITLE6=peacock rag
TTITLE7=rawhide
TTITLE8=road to columbus
TTITLE9=roanoke
TTITLE10=sail away ladies
TTITLE11=sailor's hornpipe
TTITLE12=sally goodin
TTITLE13=shuckin the corn
TTITLE14=silver bells
TTITLE15=snowflake reel
TTITLE16=spinning wheels
TTITLE17=stone's rag
TTITLE18=stony creek
TTITLE19=sugar foot rag
TTITLE20=sweet georgia brown
TTITLE21=tennessee wagoner
TTITLE22=texas gales
TTITLE23=wheel hoss
TTITLE24=whistlin ruffus
TTITLE25=wildwood flower
TTITLE26=woodchopper's reel
EXTD=
EXTT0=
EXTT1=
EXTT2=
EXTT3=
EXTT4=
EXTT5=
EXTT6=
EXTT7=
EXTT8=
EXTT9=
EXTT10=
EXTT11=
EXTT12=
EXTT13=
EXTT14=
EXTT15=
EXTT16=
EXTT17=
EXTT18=
EXTT19=
EXTT20=
EXTT21=
EXTT22=
EXTT23=
EXTT24=
EXTT25=
EXTT26=
PLAYORDER=
